<?xml version="1.0" encoding="utf-8"?>
<svg xmlns="http://www.w3.org/2000/svg" style="margin: auto; background: none; display: block; shape-rendering: auto;" width="229" height="58" preserveAspectRatio="xMidYMid">
<style type="text/css">
  text {
    text-anchor: middle; font-size: 52px; opacity: 0;
  }
</style>
<g style="transform-origin: 114.5px 29px; transform: scale(1.01961);">
<g transform="translate(114.5,29)">
  <g transform="translate(0,0)"><g class="path" style="transform: scale(0.91); transform-origin: -88.41px -5.18745px; animation: 1s linear -0.6s infinite normal forwards running breath-52168bac-effd-4034-a8bf-546933507085;"><path d="M3.67 0L3.67-38.20L7.75-38.66L7.75 0L3.67 0" fill="#ffffff" stroke="none" stroke-width="none" transform="translate(-94.12004399299622,14.142548196966002)" style="fill: rgb(255, 255, 255);"></path></g><g class="path" style="transform: scale(0.91); transform-origin: -68.06px 1.39255px; animation: 1s linear -0.54s infinite normal forwards running breath-52168bac-effd-4034-a8bf-546933507085;"><path d="M18.00-12.70L18.00-12.70L18.00-12.70Q18.00-7.75 20.22-5.33L20.22-5.33L20.22-5.33Q22.44-2.91 26.21-2.91L26.21-2.91L26.21-2.91Q29.94-2.91 32.03-5.30L32.03-5.30L32.03-5.30Q34.12-7.70 34.12-12.50L34.12-12.50L34.12-12.50Q34.12-17.60 31.90-20.09L31.90-20.09L31.90-20.09Q29.68-22.59 25.86-22.59L25.86-22.59L25.86-22.59Q22.03-22.59 20.02-20.12L20.02-20.12L20.02-20.12Q18.00-17.65 18.00-12.70zM13.67-12.75L13.67-12.75L13.67-12.75Q13.67-16.63 14.89-19.20L14.89-19.20L14.89-19.20Q16.12-21.78 18.00-23.33L18.00-23.33L18.00-23.33Q19.89-24.89 22.06-25.53L22.06-25.53L22.06-25.53Q24.23-26.16 26.16-26.16L26.16-26.16L26.16-26.16Q28.00-26.16 30.17-25.58L30.17-25.58L30.17-25.58Q32.33-24.99 34.17-23.49L34.17-23.49L34.17-23.49Q36.01-21.98 37.23-19.46L37.23-19.46L37.23-19.46Q38.45-16.93 38.45-13.06L38.45-13.06L38.45-13.06Q38.45-9.03 37.20-6.38L37.20-6.38L37.20-6.38Q35.96-3.72 34.07-2.17L34.07-2.17L34.07-2.17Q32.18-0.61 29.99 0.03L29.99 0.03L29.99 0.03Q27.80 0.66 25.91 0.66L25.91 0.66L25.91 0.66Q23.97 0.66 21.83 0.05L21.83 0.05L21.83 0.05Q19.69-0.56 17.88-2.07L17.88-2.07L17.88-2.07Q16.07-3.57 14.87-6.17L14.87-6.17L14.87-6.17Q13.67-8.77 13.67-12.75" fill="#ffffff" stroke="none" stroke-width="none" transform="translate(-94.12004399299622,14.142548196966002)" style="fill: rgb(255, 255, 255);"></path></g><g class="path" style="transform: scale(0.91); transform-origin: -41.485px 1.39255px; animation: 1s linear -0.48s infinite normal forwards running breath-52168bac-effd-4034-a8bf-546933507085;"><path d="M58.65-5.97L58.65-11.78L58.65-11.78Q57.63-11.73 56.71-11.68L56.71-11.68L56.71-11.68Q55.79-11.63 54.90-11.55L54.90-11.55L54.90-11.55Q54.01-11.48 53.30-11.37L53.30-11.37L53.30-11.37Q49.62-10.91 48.09-9.77L48.09-9.77L48.09-9.77Q46.56-8.62 46.56-6.48L46.56-6.48L46.56-6.48Q46.56-4.69 47.66-3.80L47.66-3.80L47.66-3.80Q48.76-2.91 50.54-2.91L50.54-2.91L50.54-2.91Q52.99-2.91 54.90-3.75L54.90-3.75L54.90-3.75Q56.81-4.59 58.65-5.97L58.65-5.97zM59.11 0.41L58.60-2.40L58.60-2.40Q56.20-1.02 54.14-0.18L54.14-0.18L54.14-0.18Q52.07 0.66 49.67 0.66L49.67 0.66L49.67 0.66Q46.26 0.66 44.24-0.99L44.24-0.99L44.24-0.99Q42.23-2.65 42.23-6.48L42.23-6.48L42.23-6.48Q42.23-8.47 43.25-9.95L43.25-9.95L43.25-9.95Q44.27-11.42 45.93-12.42L45.93-12.42L45.93-12.42Q47.58-13.41 49.67-13.97L49.67-13.97L49.67-13.97Q51.77-14.54 53.96-14.69L53.96-14.69L53.96-14.69Q54.88-14.79 56.36-14.87L56.36-14.87L56.36-14.87Q57.83-14.94 58.65-14.99L58.65-14.99L58.65-14.99Q58.65-16.78 58.55-18.18L58.55-18.18L58.55-18.18Q58.45-19.58 57.94-20.58L57.94-20.58L57.94-20.58Q57.43-21.57 56.43-22.08L56.43-22.08L56.43-22.08Q55.44-22.59 53.60-22.59L53.60-22.59L53.60-22.59Q52.12-22.59 50.75-22.41L50.75-22.41L50.75-22.41Q49.37-22.24 48.30-22.03L48.30-22.03L48.30-22.03Q47.02-21.78 45.95-21.47L45.95-21.47L45.13-24.99L45.13-24.99Q46.41-25.30 47.89-25.55L47.89-25.55L47.89-25.55Q49.16-25.81 50.85-25.98L50.85-25.98L50.85-25.98Q52.53-26.16 54.47-26.16L54.47-26.16L54.47-26.16Q57.07-26.16 58.68-25.40L58.68-25.40L58.68-25.40Q60.28-24.63 61.17-23.33L61.17-23.33L61.17-23.33Q62.07-22.03 62.40-20.37L62.40-20.37L62.40-20.37Q62.73-18.72 62.73-16.88L62.73-16.88L62.73-4.64L62.73-4.64Q62.73-3.93 62.76-3.14L62.76-3.14L62.76-3.14Q62.78-2.35 62.86-1.58L62.86-1.58L62.86-1.58Q62.93-0.82 63.04 0L63.04 0L59.11 0.41" fill="#ffffff" stroke="none" stroke-width="none" transform="translate(-94.12004399299622,14.142548196966002)" style="fill: rgb(255, 255, 255);"></path></g><g class="path" style="transform: scale(0.91); transform-origin: -14.69px -4.85745px; animation: 1s linear -0.42s infinite normal forwards running breath-52168bac-effd-4034-a8bf-546933507085;"><path d="M85.94-5.61L85.94-21.83L85.94-21.83Q84.10-22.34 83.08-22.47L83.08-22.47L83.08-22.47Q82.06-22.59 80.99-22.59L80.99-22.59L80.99-22.59Q78.85-22.59 77.32-21.83L77.32-21.83L77.32-21.83Q75.79-21.06 74.79-19.71L74.79-19.71L74.79-19.71Q73.80-18.36 73.34-16.60L73.34-16.60L73.34-16.60Q72.88-14.84 72.88-12.85L72.88-12.85L72.88-12.85Q72.88-11.07 73.26-9.28L73.26-9.28L73.26-9.28Q73.64-7.50 74.46-6.07L74.46-6.07L74.46-6.07Q75.28-4.64 76.45-3.77L76.45-3.77L76.45-3.77Q77.62-2.91 79.25-2.91L79.25-2.91L79.25-2.91Q80.38-2.91 81.57-3.32L81.57-3.32L81.57-3.32Q82.77-3.72 83.79-4.26L83.79-4.26L83.79-4.26Q84.81-4.79 85.94-5.61L85.94-5.61zM86.39 0.41L85.99-2.04L85.99-2.04Q84.81-1.22 83.72-0.69L83.72-0.69L83.72-0.69Q82.62-0.15 81.32 0.26L81.32 0.26L81.32 0.26Q80.02 0.66 78.80 0.66L78.80 0.66L78.80 0.66Q74.00 0.66 71.27-2.73L71.27-2.73L71.27-2.73Q68.54-6.12 68.54-12.65L68.54-12.65L68.54-12.65Q68.54-16.52 69.79-19.13L69.79-19.13L69.79-19.13Q71.04-21.73 72.93-23.28L72.93-23.28L72.93-23.28Q74.82-24.84 76.98-25.50L76.98-25.50L76.98-25.50Q79.15-26.16 80.99-26.16L80.99-26.16L80.99-26.16Q81.91-26.16 82.93-26.04L82.93-26.04L82.93-26.04Q83.95-25.91 85.94-25.40L85.94-25.40L85.94-38.20L90.02-38.66L90.02-4.64L90.02-4.64Q90.02-3.93 90.04-3.14L90.04-3.14L90.04-3.14Q90.07-2.35 90.14-1.58L90.14-1.58L90.14-1.58Q90.22-0.82 90.32 0L90.32 0L86.39 0.41" fill="#ffffff" stroke="none" stroke-width="none" transform="translate(-94.12004399299622,14.142548196966002)" style="fill: rgb(255, 255, 255);"></path></g><g class="path" style="transform: scale(0.91); transform-origin: 5.32996px 1.06255px; animation: 1s linear -0.36s infinite normal forwards running breath-52168bac-effd-4034-a8bf-546933507085;"><path d="M97.41 0L97.41-25.70L101.49-26.16L101.49 0L97.41 0" fill="#ffffff" stroke="none" stroke-width="none" transform="translate(-94.12004399299622,14.142548196966002)" style="fill: rgb(255, 255, 255);"></path></g><g class="path" style="transform: scale(0.91); transform-origin: 5.45996px -18.8525px; animation: 1s linear -0.3s infinite normal forwards running breath-52168bac-effd-4034-a8bf-546933507085;"><path d="M96.75-33.00L96.75-33.00L96.75-33.00Q96.75-34.17 97.54-34.96L97.54-34.96L97.54-34.96Q98.33-35.75 99.50-35.75L99.50-35.75L99.50-35.75Q100.72-35.75 101.57-34.96L101.57-34.96L101.57-34.96Q102.41-34.17 102.41-33.00L102.41-33.00L102.41-33.00Q102.41-31.82 101.57-31.03L101.57-31.03L101.57-31.03Q100.72-30.24 99.50-30.24L99.50-30.24L99.50-30.24Q98.33-30.24 97.54-31.03L97.54-31.03L97.54-31.03Q96.75-31.82 96.75-33.00" fill="#ffffff" stroke="none" stroke-width="none" transform="translate(-94.12004399299622,14.142548196966002)" style="fill: rgb(255, 255, 255);"></path></g><g class="path" style="transform: scale(0.91); transform-origin: 24.965px 1.06255px; animation: 1s linear -0.24s infinite normal forwards running breath-52168bac-effd-4034-a8bf-546933507085;"><path d="M108.89 0L108.89-20.55L108.89-20.55Q108.94-21.62 108.63-25.19L108.63-25.19L112.40-25.70L112.97-22.44L112.97-22.44Q114.50-23.46 116.00-24.23L116.00-24.23L116.00-24.23Q117.50-24.99 119.09-25.58L119.09-25.58L119.09-25.58Q120.67-26.16 122.15-26.16L122.15-26.16L122.15-26.16Q124.24-26.16 125.64-25.68L125.64-25.68L125.64-25.68Q127.04-25.19 127.91-24.07L127.91-24.07L127.91-24.07Q128.78-22.95 129.16-21.11L129.16-21.11L129.16-21.11Q129.54-19.28 129.54-16.52L129.54-16.52L129.54 0L125.46 0L125.46-16.07L125.46-16.07Q125.46-17.60 125.41-18.79L125.41-18.79L125.41-18.79Q125.36-19.99 124.98-20.83L124.98-20.83L124.98-20.83Q124.59-21.68 123.80-22.13L123.80-22.13L123.80-22.13Q123.01-22.59 121.58-22.59L121.58-22.59L121.58-22.59Q120.26-22.59 118.78-22.01L118.78-22.01L118.78-22.01Q117.30-21.42 115.87-20.66L115.87-20.66L115.87-20.66Q114.44-19.89 112.97-18.87L112.97-18.87L112.97 0L108.89 0" fill="#ffffff" stroke="none" stroke-width="none" transform="translate(-94.12004399299622,14.142548196966002)" style="fill: rgb(255, 255, 255);"></path></g><g class="path" style="transform: scale(0.91); transform-origin: 51.965px 7.25755px; animation: 1s linear -0.18s infinite normal forwards running breath-52168bac-effd-4034-a8bf-546933507085;"><path d="M156.82-25.04L156.82 2.45L156.82 2.45Q156.82 4.33 156.42 6.12L156.42 6.12L156.42 6.12Q156.01 7.91 154.86 9.31L154.86 9.31L154.86 9.31Q153.71 10.71 151.65 11.55L151.65 11.55L151.65 11.55Q149.58 12.39 146.22 12.39L146.22 12.39L146.22 12.39Q144.07 12.34 142.49 12.14L142.49 12.14L142.49 12.14Q140.91 11.93 139.48 11.55L139.48 11.55L139.48 11.55Q138.06 11.17 136.88 10.66L136.88 10.66L137.95 7.09L137.95 7.09Q139.94 7.96 142.01 8.42L142.01 8.42L142.01 8.42Q144.07 8.87 145.71 8.87L145.71 8.87L145.71 8.87Q147.49 8.87 148.82 8.52L148.82 8.52L148.82 8.52Q150.14 8.16 151.04 7.32L151.04 7.32L151.04 7.32Q151.93 6.48 152.36 5.10L152.36 5.10L152.36 5.10Q152.80 3.72 152.80 1.68L152.80 1.68L152.80-2.04L152.80-2.04Q151.72-1.33 150.58-0.74L150.58-0.74L150.58-0.74Q149.43-0.15 148.13 0.26L148.13 0.26L148.13 0.26Q146.83 0.66 145.60 0.66L145.60 0.66L145.60 0.66Q140.86 0.66 138.11-2.68L138.11-2.68L138.11-2.68Q135.35-6.02 135.35-12.65L135.35-12.65L135.35-12.65Q135.35-16.47 136.55-19.05L136.55-19.05L136.55-19.05Q137.75-21.62 139.59-23.21L139.59-23.21L139.59-23.21Q141.42-24.79 143.62-25.47L143.62-25.47L143.62-25.47Q145.81-26.16 147.80-26.16L147.80-26.16L147.80-26.16Q150.40-26.16 152.57-25.73L152.57-25.73L152.57-25.73Q154.73-25.30 156.82-25.04L156.82-25.04zM146.06-2.91L146.06-2.91L146.06-2.91Q147.19-2.91 148.36-3.32L148.36-3.32L148.36-3.32Q149.53-3.72 150.63-4.28L150.63-4.28L150.63-4.28Q151.72-4.85 152.80-5.61L152.80-5.61L152.80-21.88L152.80-21.88Q152.18-22.03 151.37-22.24L151.37-22.24L151.37-22.24Q150.65-22.34 149.74-22.47L149.74-22.47L149.74-22.47Q148.82-22.59 147.80-22.59L147.80-22.59L147.80-22.59Q145.66-22.59 144.13-21.83L144.13-21.83L144.13-21.83Q142.60-21.06 141.60-19.74L141.60-19.74L141.60-19.74Q140.61-18.41 140.15-16.63L140.15-16.63L140.15-16.63Q139.69-14.84 139.69-12.85L139.69-12.85L139.69-12.85Q139.69-11.07 140.07-9.28L140.07-9.28L140.07-9.28Q140.45-7.50 141.27-6.07L141.27-6.07L141.27-6.07Q142.09-4.64 143.26-3.77L143.26-3.77L143.26-3.77Q144.43-2.91 146.06-2.91" fill="#ffffff" stroke="none" stroke-width="none" transform="translate(-94.12004399299622,14.142548196966002)" style="fill: rgb(255, 255, 255);"></path></g><g class="path" style="transform: scale(0.91); transform-origin: 72.065px 11.1325px; animation: 1s linear -0.12s infinite normal forwards running breath-52168bac-effd-4034-a8bf-546933507085;"><path d="M163.10-3.01L163.10-3.01L163.10-3.01Q163.10-4.23 163.97-5.13L163.97-5.13L163.97-5.13Q164.83-6.02 166.11-6.02L166.11-6.02L166.11-6.02Q167.43-6.02 168.35-5.13L168.35-5.13L168.35-5.13Q169.27-4.23 169.27-3.01L169.27-3.01L169.27-3.01Q169.27-1.73 168.35-0.87L168.35-0.87L168.35-0.87Q167.43 0 166.11 0L166.11 0L166.11 0Q164.83 0 163.97-0.87L163.97-0.87L163.97-0.87Q163.10-1.73 163.10-3.01" fill="#ffffff" stroke="none" stroke-width="none" transform="translate(-94.12004399299622,14.142548196966002)" style="fill: rgb(255, 255, 255);"></path></g><g class="path" style="transform: scale(0.91); transform-origin: 83.385px 11.1325px; animation: 1s linear -0.06s infinite normal forwards running breath-52168bac-effd-4034-a8bf-546933507085;"><path d="M174.42-3.01L174.42-3.01L174.42-3.01Q174.42-4.23 175.29-5.13L175.29-5.13L175.29-5.13Q176.15-6.02 177.43-6.02L177.43-6.02L177.43-6.02Q178.76-6.02 179.67-5.13L179.67-5.13L179.67-5.13Q180.59-4.23 180.59-3.01L180.59-3.01L180.59-3.01Q180.59-1.73 179.67-0.87L179.67-0.87L179.67-0.87Q178.76 0 177.43 0L177.43 0L177.43 0Q176.15 0 175.29-0.87L175.29-0.87L175.29-0.87Q174.42-1.73 174.42-3.01" fill="#ffffff" stroke="none" stroke-width="none" transform="translate(-94.12004399299622,14.142548196966002)" style="fill: rgb(255, 255, 255);"></path></g><g class="path" style="transform: scale(0.91); transform-origin: 94.705px 11.1325px; animation: 1s linear 0s infinite normal forwards running breath-52168bac-effd-4034-a8bf-546933507085;"><path d="M185.74-3.01L185.74-3.01L185.74-3.01Q185.74-4.23 186.61-5.13L186.61-5.13L186.61-5.13Q187.48-6.02 188.75-6.02L188.75-6.02L188.75-6.02Q190.08-6.02 191.00-5.13L191.00-5.13L191.00-5.13Q191.91-4.23 191.91-3.01L191.91-3.01L191.91-3.01Q191.91-1.73 191.00-0.87L191.00-0.87L191.00-0.87Q190.08 0 188.75 0L188.75 0L188.75 0Q187.48 0 186.61-0.87L186.61-0.87L186.61-0.87Q185.74-1.73 185.74-3.01" fill="#ffffff" stroke="none" stroke-width="none" transform="translate(-94.12004399299622,14.142548196966002)" style="fill: rgb(255, 255, 255);"></path></g></g>
</g>
</g>
<style id="breath-52168bac-effd-4034-a8bf-546933507085" data-anikit="">@keyframes breath-52168bac-effd-4034-a8bf-546933507085
{
  0% {
    animation-timing-function: cubic-bezier(0.9647,0.2413,-0.0705,0.7911);
    transform: scale(0.9099999999999999);
  }
  51% {
    animation-timing-function: cubic-bezier(0.9226,0.2631,-0.0308,0.7628);
    transform: scale(1.02994);
  }
  100% {
    transform: scale(0.9099999999999999);
  }
}</style></svg>